<mxfile host="app.diagrams.net" modified="2021-03-30T06:31:14.493Z" agent="5.0 (Windows NT 10.0; WOW64) AppleWebKit/537.36 (KHTML, like Gecko) Chrome/65.0.3325.181 Safari/537.36" etag="iu84i-2re5kjpFDZGCWy" version="14.4.6" type="github">
  <diagram id="C5RBs43oDa-KdzZeNtuy" name="Page-1">
    <mxGraphModel dx="1422" dy="725" grid="1" gridSize="10" guides="1" tooltips="1" connect="1" arrows="1" fold="1" page="1" pageScale="1" pageWidth="827" pageHeight="1169" math="0" shadow="0">
      <root>
        <mxCell id="WIyWlLk6GJQsqaUBKTNV-0" />
        <mxCell id="WIyWlLk6GJQsqaUBKTNV-1" parent="WIyWlLk6GJQsqaUBKTNV-0" />
        <mxCell id="S8IJ7X9xYJI7sZIlLd-R-20" style="edgeStyle=orthogonalEdgeStyle;rounded=0;orthogonalLoop=1;jettySize=auto;html=1;exitX=1;exitY=0.5;exitDx=0;exitDy=0;entryX=0;entryY=0.5;entryDx=0;entryDy=0;fontSize=22;" edge="1" parent="WIyWlLk6GJQsqaUBKTNV-1" source="S8IJ7X9xYJI7sZIlLd-R-2" target="S8IJ7X9xYJI7sZIlLd-R-13">
          <mxGeometry relative="1" as="geometry" />
        </mxCell>
        <mxCell id="S8IJ7X9xYJI7sZIlLd-R-2" value="" style="rounded=0;whiteSpace=wrap;html=1;" vertex="1" parent="WIyWlLk6GJQsqaUBKTNV-1">
          <mxGeometry x="260" y="290" width="150" height="220" as="geometry" />
        </mxCell>
        <mxCell id="S8IJ7X9xYJI7sZIlLd-R-3" value="路由控制层" style="rounded=0;whiteSpace=wrap;html=1;" vertex="1" parent="WIyWlLk6GJQsqaUBKTNV-1">
          <mxGeometry x="275" y="360" width="120" height="30" as="geometry" />
        </mxCell>
        <mxCell id="S8IJ7X9xYJI7sZIlLd-R-4" value="消息通信" style="rounded=0;whiteSpace=wrap;html=1;" vertex="1" parent="WIyWlLk6GJQsqaUBKTNV-1">
          <mxGeometry x="275" y="410" width="120" height="30" as="geometry" />
        </mxCell>
        <mxCell id="S8IJ7X9xYJI7sZIlLd-R-5" value="公共模块" style="rounded=0;whiteSpace=wrap;html=1;" vertex="1" parent="WIyWlLk6GJQsqaUBKTNV-1">
          <mxGeometry x="275" y="460" width="120" height="30" as="geometry" />
        </mxCell>
        <mxCell id="S8IJ7X9xYJI7sZIlLd-R-7" value="PC/H5基座" style="text;html=1;strokeColor=none;fillColor=none;align=center;verticalAlign=middle;whiteSpace=wrap;rounded=0;fontSize=22;" vertex="1" parent="WIyWlLk6GJQsqaUBKTNV-1">
          <mxGeometry x="270" y="310" width="130" height="20" as="geometry" />
        </mxCell>
        <mxCell id="S8IJ7X9xYJI7sZIlLd-R-13" value="" style="rounded=0;whiteSpace=wrap;html=1;" vertex="1" parent="WIyWlLk6GJQsqaUBKTNV-1">
          <mxGeometry x="469" y="290" width="150" height="220" as="geometry" />
        </mxCell>
        <mxCell id="S8IJ7X9xYJI7sZIlLd-R-14" value="业务线一" style="rounded=0;whiteSpace=wrap;html=1;" vertex="1" parent="WIyWlLk6GJQsqaUBKTNV-1">
          <mxGeometry x="484" y="360" width="120" height="30" as="geometry" />
        </mxCell>
        <mxCell id="S8IJ7X9xYJI7sZIlLd-R-15" value="业务线二" style="rounded=0;whiteSpace=wrap;html=1;" vertex="1" parent="WIyWlLk6GJQsqaUBKTNV-1">
          <mxGeometry x="484" y="410" width="120" height="30" as="geometry" />
        </mxCell>
        <mxCell id="S8IJ7X9xYJI7sZIlLd-R-16" value="业务线三" style="rounded=0;whiteSpace=wrap;html=1;" vertex="1" parent="WIyWlLk6GJQsqaUBKTNV-1">
          <mxGeometry x="484" y="460" width="120" height="30" as="geometry" />
        </mxCell>
        <mxCell id="S8IJ7X9xYJI7sZIlLd-R-17" value="子工程" style="text;html=1;strokeColor=none;fillColor=none;align=center;verticalAlign=middle;whiteSpace=wrap;rounded=0;fontSize=22;" vertex="1" parent="WIyWlLk6GJQsqaUBKTNV-1">
          <mxGeometry x="479" y="310" width="130" height="20" as="geometry" />
        </mxCell>
      </root>
    </mxGraphModel>
  </diagram>
</mxfile>
